<?xml version="1.0" encoding="utf-8"?>
<!-- Generator: Adobe Illustrator 23.0.1, SVG Export Plug-In . SVG Version: 6.00 Build 0)  -->
<svg version="1.1" id="Layer_1" xmlns="http://www.w3.org/2000/svg" xmlns:xlink="http://www.w3.org/1999/xlink" x="0px" y="0px"
	 viewBox="0 0 296.36 62.44" style="enable-background:new 0 0 296.36 62.44;" xml:space="preserve">
<style type="text/css">
	.st0{fill:#757578;}
	.st1{fill:#231F1E;}
	.st2{fill:#C42026;}
</style>
<g>
	<path class="st0" d="M147.3,50.48h-6.43l-1.7-4.22h-9.04l-1.73,4.22h-6.43l9.21-20.81h6.94L147.3,50.48z M137.74,42.64l-3.05-7.6
		l-3.08,7.6H137.74z"/>
	<path class="st0" d="M171.46,40.45c0,2.13-0.39,3.84-1.16,5.14c-0.78,1.29-1.69,2.34-2.74,3.14c-1.49,1.17-3.58,1.76-6.26,1.76
		h-11.23V29.67h8.65c1.3,0,2.41,0.07,3.34,0.2c0.93,0.13,1.76,0.33,2.5,0.57c0.74,0.25,1.37,0.52,1.89,0.83
		c0.52,0.31,0.99,0.63,1.4,0.98c0.71,0.58,1.33,1.27,1.87,2.06c0.54,0.79,0.96,1.71,1.28,2.75
		C171.31,38.1,171.46,39.23,171.46,40.45z M165.08,40.18c0-1.69-0.32-3.01-0.97-3.96c-0.65-0.95-1.42-1.58-2.33-1.9
		s-1.83-0.48-2.77-0.48h-2.67v12.33h2.67c1.64,0,3.06-0.39,4.27-1.17C164.48,44.22,165.08,42.61,165.08,40.18z"/>
	<path class="st0" d="M195.24,29.67l-9.39,21.08h-4.14l-9.21-21.08h6.53l4.76,12.01l4.9-12.01H195.24z"/>
	<path class="st0" d="M204.4,50.48h-6.28V29.67h6.28V50.48z"/>
	<path class="st0" d="M224.2,44.43c0,1.3-0.33,2.43-1,3.38c-0.67,0.95-1.59,1.68-2.79,2.18c-1.19,0.51-2.56,0.76-4.1,0.76
		c-0.43,0-0.96-0.03-1.58-0.08c-0.63-0.05-1.46-0.21-2.49-0.46c-1.04-0.25-2.12-0.62-3.24-1.11V44c1.05,0.65,2.08,1.19,3.1,1.62
		c1.02,0.43,2.1,0.65,3.27,0.65c1.07,0,1.76-0.18,2.08-0.53s0.47-0.69,0.47-1c0-0.56-0.27-1.03-0.81-1.42
		c-0.54-0.38-1.33-0.78-2.36-1.19c-1.14-0.48-2.14-1-3-1.57c-0.86-0.57-1.56-1.27-2.11-2.12c-0.55-0.85-0.82-1.86-0.82-3.02
		c0-1.12,0.28-2.13,0.83-3.04c0.55-0.91,1.39-1.63,2.52-2.17c1.13-0.54,2.51-0.81,4.14-0.81c1.16,0,2.24,0.11,3.22,0.34
		c0.99,0.23,1.8,0.48,2.44,0.76s1.08,0.5,1.32,0.66v4.88c-0.85-0.61-1.8-1.16-2.85-1.64c-1.05-0.48-2.16-0.72-3.36-0.72
		c-0.78,0-1.35,0.15-1.7,0.45c-0.35,0.3-0.53,0.67-0.53,1.11c0,0.41,0.17,0.77,0.53,1.07c0.35,0.3,0.98,0.67,1.88,1.1
		c1.6,0.75,2.88,1.43,3.84,2.03s1.71,1.29,2.26,2.08S224.2,43.26,224.2,44.43z"/>
	<path class="st0" d="M250.74,40.06c0,1.94-0.45,3.73-1.34,5.36c-0.9,1.63-2.23,2.93-4,3.89c-1.77,0.96-3.93,1.44-6.47,1.44
		c-2.57,0-4.75-0.5-6.53-1.5s-3.11-2.32-3.97-3.95c-0.87-1.63-1.3-3.38-1.3-5.24c0-1.87,0.43-3.62,1.29-5.25s2.18-2.94,3.97-3.93
		s3.97-1.49,6.54-1.49c1.92,0,3.64,0.29,5.14,0.86c1.51,0.57,2.75,1.34,3.72,2.32c0.97,0.98,1.71,2.11,2.21,3.41
		C250.49,37.27,250.74,38.63,250.74,40.06z M244.34,40.06c0-0.78-0.12-1.49-0.34-2.14c-0.23-0.65-0.58-1.21-1.04-1.68
		s-1.03-0.85-1.7-1.11c-0.67-0.27-1.45-0.4-2.33-0.4c-1.68,0-3,0.49-3.96,1.47c-0.96,0.98-1.44,2.27-1.44,3.86s0.48,2.88,1.45,3.87
		s2.29,1.48,3.96,1.48c1.15,0,2.13-0.23,2.94-0.68s1.43-1.09,1.85-1.89C244.13,42.03,244.34,41.1,244.34,40.06z"/>
	<path class="st0" d="M274.8,50.48h-6.74l-1.64-3.69c-0.6-1.35-1.14-2.34-1.62-2.97c-0.48-0.62-0.95-1.03-1.4-1.2
		c-0.46-0.17-1.04-0.26-1.76-0.26h-0.71v8.12h-6.28V29.67h10.68c1.72,0,3.13,0.35,4.23,1.05c1.1,0.7,1.89,1.55,2.38,2.55
		c0.49,1,0.73,1.95,0.73,2.85c0,1.05-0.2,1.94-0.61,2.67c-0.41,0.73-0.83,1.25-1.28,1.58c-0.45,0.33-0.96,0.65-1.52,0.95
		c0.67,0.39,1.22,0.85,1.66,1.39c0.44,0.54,1.03,1.62,1.78,3.25L274.8,50.48z M266.27,36.25c0-0.96-0.32-1.63-0.95-2.01
		s-1.66-0.57-3.08-0.57h-1.32v5.02h1.35c1.53,0,2.58-0.17,3.15-0.5C265.98,37.84,266.27,37.2,266.27,36.25z"/>
	<path class="st0" d="M292.2,44.43c0,1.3-0.33,2.43-1,3.38c-0.67,0.95-1.59,1.68-2.79,2.18c-1.19,0.51-2.56,0.76-4.1,0.76
		c-0.43,0-0.96-0.03-1.58-0.08c-0.63-0.05-1.46-0.21-2.49-0.46c-1.04-0.25-2.12-0.62-3.24-1.11V44c1.05,0.65,2.08,1.19,3.1,1.62
		c1.02,0.43,2.1,0.65,3.27,0.65c1.07,0,1.76-0.18,2.08-0.53s0.47-0.69,0.47-1c0-0.56-0.27-1.03-0.81-1.42
		c-0.54-0.38-1.33-0.78-2.36-1.19c-1.14-0.48-2.14-1-3-1.57c-0.86-0.57-1.56-1.27-2.11-2.12c-0.55-0.85-0.82-1.86-0.82-3.02
		c0-1.12,0.28-2.13,0.83-3.04c0.55-0.91,1.39-1.63,2.52-2.17c1.13-0.54,2.51-0.81,4.14-0.81c1.16,0,2.24,0.11,3.22,0.34
		c0.99,0.23,1.8,0.48,2.44,0.76s1.08,0.5,1.32,0.66v4.88c-0.85-0.61-1.8-1.16-2.85-1.64c-1.05-0.48-2.16-0.72-3.36-0.72
		c-0.78,0-1.35,0.15-1.7,0.45c-0.35,0.3-0.53,0.67-0.53,1.11c0,0.41,0.17,0.77,0.53,1.07c0.35,0.3,0.98,0.67,1.88,1.1
		c1.6,0.75,2.88,1.43,3.84,2.03s1.71,1.29,2.26,2.08S292.2,43.26,292.2,44.43z"/>
</g>
<polygon class="st1" points="9.92,3.99 6,50.48 17.05,50.48 20.89,4.01 "/>
<polygon class="st1" points="54.02,3.99 50.07,50.48 61.16,50.25 64.98,4.01 "/>
<path class="st1" d="M42.11,3.97l-0.48,11.1c0,0,1.18-4.08,4.15-7.04c3.75-3.75,6.27-4.05,6.27-4.05H42.11z"/>
<path class="st1" d="M77.14,3.97l0.48,11.1c0,0-0.78-3.75-4.15-7.04C70.6,5.22,67.2,3.97,67.2,3.97H77.14z"/>
<polygon class="st1" points="82.26,3.99 82.25,10.72 107.91,50.77 107.91,28.48 92.93,4.01 "/>
<path class="st1" d="M86.33,50.44l-10.98,0.03c0,0,2.07-0.52,3.66-3.42c1.74-3.18,1.75-5.03,1.75-5.03s0.07,2.85,1.53,5.03
	C84.38,50.18,86.33,50.44,86.33,50.44z"/>
<path class="st1" d="M107.41,4.04l10.98-0.03c0,0-2.07,0.52-3.66,3.42c-1.74,3.18-1.75,5.03-1.75,5.03s-0.07-2.85-1.53-5.03
	C109.36,4.3,107.41,4.04,107.41,4.04z"/>
<path class="st1" d="M23.14,4.39c0,0,5.7,4.32,5.7,9.77s-5.62,11.69-5.62,11.69s13.44-2.57,13.44-11.45S23.14,4.39,23.14,4.39z"/>
<path class="st1" d="M23.2,25.85c0,0,4.91,5.63,4.91,11.77s-7.29,12.88-7.29,12.88S38.45,49.5,38.45,37.7
	C38.45,27.71,23.2,25.85,23.2,25.85z"/>
<rect x="4.88" y="58.61" class="st2" width="286.7" height="2"/>
</svg>
